<svg width="22" height="22" viewBox="0 0 22 22" fill="none" xmlns="http://www.w3.org/2000/svg">
<g clip-path="url(#clip0_1894_402)">
<path d="M3.81525 16.2568C3.95538 16.3975 4.06275 16.5673 4.12972 16.7542C4.19669 16.9412 4.22161 17.1405 4.2027 17.3382C4.10782 18.2529 3.92794 19.1568 3.6654 20.0382C5.54865 19.6021 6.69885 19.0972 7.2213 18.8326C7.51763 18.6825 7.85889 18.647 8.1798 18.7327C9.09974 18.978 10.0479 19.1014 11 19.0999C16.3946 19.0999 20.45 15.3105 20.45 10.9999C20.45 6.69073 16.3946 2.89993 11 2.89993C5.60535 2.89993 1.54995 6.69073 1.54995 10.9999C1.54995 12.9817 2.3829 14.8204 3.81525 16.2568ZM3.1497 21.5286C2.82984 21.592 2.50895 21.65 2.18715 21.7027C1.91715 21.7459 1.71195 21.4651 1.8186 21.214C1.93847 20.9313 2.04834 20.6445 2.148 20.3541L2.15205 20.3406C2.48685 19.3686 2.75955 18.2508 2.85945 17.2099C1.203 15.5494 0.199951 13.3759 0.199951 10.9999C0.199951 5.78083 5.03565 1.54993 11 1.54993C16.9643 1.54993 21.8 5.78083 21.8 10.9999C21.8 16.219 16.9643 20.4499 11 20.4499C9.93028 20.4514 8.86504 20.3125 7.8315 20.0368C7.1295 20.3919 5.61885 21.0385 3.1497 21.5286Z" fill="#F7F7F7"/>
<path d="M10.5624 5.89906C10.7136 5.50028 11.2858 5.50028 11.4375 5.89906L12.4155 8.60834C12.4496 8.69659 12.5097 8.77243 12.5878 8.82582C12.6659 8.87922 12.7584 8.90768 12.853 8.90743H15.2565C15.7007 8.90743 15.8944 9.46024 15.5452 9.73098L13.8348 11.2699C13.7582 11.3288 13.7022 11.4104 13.6749 11.5031C13.6476 11.5958 13.6503 11.6948 13.6827 11.7859L14.3073 14.4332C14.4595 14.8585 13.9671 15.2237 13.5948 14.962L11.2716 13.4878C11.1921 13.4319 11.0972 13.4019 11 13.4019C10.9027 13.4019 10.8078 13.4319 10.7283 13.4878L8.4051 14.962C8.03326 15.2237 7.54047 14.858 7.69261 14.4332L8.31722 11.7859C8.34963 11.6948 8.35236 11.5958 8.32502 11.5031C8.29769 11.4104 8.2417 11.3288 8.16509 11.2699L6.45471 9.73098C6.10508 9.46024 6.29974 8.90743 6.74292 8.90743H9.14642C9.24106 8.90774 9.33356 8.87931 9.41168 8.82591C9.48981 8.7725 9.54988 8.69663 9.58394 8.60834L10.562 5.89906H10.5624Z" fill="#F7F7F7"/>
</g>
<defs>
<clipPath id="clip0_1894_402">
<rect width="21.6" height="21.6" fill="white" transform="translate(0.199951 0.199951)"/>
</clipPath>
</defs>
</svg>
