<svg width="32" height="32" viewBox="0 0 32 32" fill="none"
    xmlns="http://www.w3.org/2000/svg">
    <path d="M16.0001 20C18.2134 20 19.9867 18.2133 19.9867 16L20.0001 8C20.0001 5.78667 18.2134 4 16.0001 4C13.7867 4 12.0001 5.78667 12.0001 8V16C12.0001 18.2133 13.7867 20 16.0001 20ZM23.0667 16C23.0667 20 19.6801 22.8 16.0001 22.8C12.3201 22.8 8.93341 20 8.93341 16H6.66675C6.66675 20.56 10.2934 24.3067 14.6667 24.96V29.3333H17.3334V24.96C21.7067 24.32 25.3334 20.56 25.3334 16H23.0667Z" fill="currentColor"/>
</svg>
